<svg clip-rule="evenodd" fill-rule="evenodd" stroke-linejoin="round" stroke-miterlimit="2" viewBox="0 0 95 20" xmlns="http://www.w3.org/2000/svg"><g fill="#c00" fill-rule="nonzero"><path d="m22.117 14.515c-1.494 2.157-3.958 3.447-6.582 3.447-4.392 0-8.007-3.615-8.007-8.007 0-4.393 3.615-8.007 8.007-8.007 1.504 0 2.978.424 4.252 1.222l-4.24 6.761 7.945-4.584c-1.285-2.003-3.19-3.532-5.424-4.354-3.678-1.324-7.705-1.324-11.383 0-1.809.678-3.414 1.809-4.66 3.285-2.688 3.244-2.688 7.986 0 11.23 1.225 1.499 2.837 2.635 4.66 3.285 1.824.663 3.751.999 5.692.993 1.247-.003 2.489-.144 3.705-.42 2.441-.562 4.653-1.854 6.341-3.705z"/><path d="m120.485 8.838c-.421.007-.836.098-1.222.267l-4.622 2.139c-.229-1.399-1.447-2.438-2.865-2.444-.42.011-.835.102-1.222.267l-5.654 2.633h3.973v13.067h5.806v-11.612c.04-.767.682-1.376 1.45-1.376s1.41.609 1.45 1.376v11.612h5.806v-13.067c-.017-1.578-1.322-2.865-2.9-2.862z" transform="translate(-64.83 -5.439)"/><path d="m215.985 8.838c-.42.011-.835.102-1.222.267l-4.622 2.139c-.229-1.399-1.447-2.438-2.865-2.444-.42.011-.835.102-1.222.267l-5.654 2.633h3.934v13.067h5.806v-11.612c-.001-.025-.002-.051-.002-.076 0-.797.655-1.452 1.452-1.452s1.452.655 1.452 1.452c0 .025-.001.051-.002.076v11.612h5.806v-13.067c0-.008 0-.017 0-.025 0-1.556-1.281-2.837-2.837-2.837-.008 0-.016 0-.024 0z" transform="translate(-123.851 -5.439)"/><path d="m167.851 8.9c-4.526 0-8.251 3.725-8.251 8.251s3.725 8.251 8.251 8.251 8.251-3.725 8.251-8.251c-.008-4.523-3.728-8.243-8.251-8.251zm1.91 15.279c-.153.041-.311.062-.47.062-.823 0-1.546-.564-1.746-1.362l-2.827-10.543c-.035-.142-.053-.288-.053-.435 0-.996.82-1.816 1.816-1.816.815 0 1.535.548 1.751 1.334l2.827 10.543c.227.961-.349 1.944-1.298 2.217z" transform="translate(-98.636 -5.5)"/><path d="m72.112 20.054c0 1.591-1.309 2.9-2.9 2.9s-2.9-1.309-2.9-2.9 1.309-2.9 2.9-2.9 2.9 1.309 2.9 2.9zm1.49 4.851h5.806l-3.361-12.491c-.541-2.061-2.416-3.51-4.547-3.514-.544.008-1.083.098-1.6.267l-7.223 2.633h7.41l1.261 4.737c-1.268-1.111-2.898-1.722-4.584-1.719-1.254.004-2.488.319-3.591.917-.84.452-1.541 1.126-2.025 1.948-.865 1.458-.865 3.279 0 4.737.495.814 1.193 1.485 2.025 1.948 1.103.598 2.337.913 3.591.917 2.404.013 4.671-1.142 6.074-3.094z" transform="translate(-37.39 -5.5)"/></g></svg>
