<svg id="SvgjsSvg1001" width="288" height="288" xmlns="http://www.w3.org/2000/svg" version="1.1" xmlns:xlink="http://www.w3.org/1999/xlink" xmlns:svgjs="http://svgjs.com/svgjs"><defs id="SvgjsDefs1002"></defs><g id="SvgjsG1008"><svg xmlns="http://www.w3.org/2000/svg" enable-background="new 0 0 180 50" viewBox="0 0 180 50" width="288" height="288"><path d="M136.2 1l0 23c0 1.5.7 2.3 2.2 2.3 0 0 7.6 0 7.6 0v2.6c0 .3-.2.5-.5.5h-12.3c-3.8 0-4.4-2.1-4.4-4V2.6c0-1.1.4-1.6 1.7-1.6H136.2M122.1 1l0 26.9c0 1.2-.5 1.5-1.5 1.5h-5.8V2.5c0-.9.3-1.5 1.6-1.5H122.1M1.7 4.9c0-2.2 0-3.9 3.6-3.9h15.6v2.7c0 .2-.1.4-.4.4 0 0-9.4 0-9.4 0C9.9 4.1 9.3 4.7 9.3 6c0 0 0 7.2 0 7.2h11l0 2.9c0 .3-.2.4-.4.4H9.3v11.4c0 1.1-.6 1.5-1.8 1.5H1.7V4.9M32.2 1v21.7c0 1.9.3 3.2 1.6 3.9 1.7 1 4.7 1 6.5 0 1.2-.7 1.7-1.8 1.7-3.9V2.4C42 1.5 42.3 1 43.6 1h5.7l0 21c0 4.9-3.1 6.9-5.8 7.6-3.6 1-9.1 1-12.5 0-4.1-1.2-6-3.6-6-7.6l0-19.6c0-.9.3-1.5 1.4-1.5H32.2M169.9 1c-1.4 0-2.3.7-2.6 2l-4.6 19.6-.1 0L157.7 1h-6.5c-1.3 0-1.7.6-1.7 1.7v26.8h2.8c.4 0 .6-.2.6-.7V6.3h.4l5.9 23.1h3.9c1.5 0 2-.6 2.4-2l5.3-21.1h.4l0 23.1 5.2 0c1.3 0 1.8-.5 1.8-1.7V1L169.9 1M83.8 16.4h-7.3v13h5.8c1 0 1.5-.3 1.5-1.5C83.8 27.9 83.8 22.4 83.8 16.4" fill="#ffffff" class="svgShape color000000-0 selectable"></path><path fill="#FB0020" d="M83.4,10.9c0.3-0.2,0.4-0.4,0.4-0.8V1h-5.7c-1.3,0-1.6,0.6-1.6,1.5v13.8L83.4,10.9" class="svgShape colorfb0020-1 selectable"></path><path d="M58.4 27.2c3.2-.4 4.2-2.3 4.2-5.1V2.5c0-1.2.6-1.5 1.4-1.5h5.8v18.5c0 4.5-1 6.8-3.6 8.8-1.4 1-3.8 2.2-9.2 2.2-3 0-4.4-.2-4.6-.2-.3-.1-.4-.2-.4-.4v-2.4C53.5 27.4 56.3 27.5 58.4 27.2M94.9 1c-3.6 0-3.6 1.8-3.6 3.9v7.3c0 .2-.1.2-.1.3l-5 3.9h5.1v13h5.8c1.2 0 1.8-.4 1.8-1.5V16.4h10.6c.2 0 .4-.1.4-.4l0-2.9h-11c0 0 0-7.2 0-7.2 0-1.3.6-1.9 1.9-1.9 0 0 9.4 0 9.4 0 .3 0 .4-.2.4-.4V1H94.9M10.8 37.9l3.4 7.5 3.2-7.5H19l-4.5 10.6c-.1.3-.4.4-.6.4h-.7L8.4 38.3c-.1-.2.1-.4.3-.4H10.8M29.9 48.4c0 .2-.2.4-.4.4h-1.9V37.2c0-.2.2-.4.4-.4h1.9V48.4M94.9 38.4c0-.2.2-.4.5-.4h2.1v10.4c0 .2-.2.5-.4.5h-2.1V38.4M128.6 40.5l2.3 5.1 2.3-5.1h1.6l-3.7 8.1c-.1.2-.4.4-.6.4h-.6l-3.6-8.1c-.1-.2.1-.4.3-.4H128.6M150.5 41.1c0-.2.2-.5.4-.5h1.9v7.8c0 .2-.2.4-.4.4h-1.9V41.1M64.8 40.4c-.7 0-1.5.4-2.1.9v-.7h-1.9c-.2 0-.5.2-.5.5v7.8h1.9c.2 0 .5-.2.5-.5v-5.5-.1c1.4-1.4 2.8-.7 3.5-.1v-1.9C65.9 40.6 65.6 40.4 64.8 40.4M23.2 47c0-.8 0-1.9 0-2.7-1.6.5-2.3 1.5-2.3 2.3 0 .5.3 1.1.9 1.1C22.5 47.6 22.9 47.2 23.2 47M22.3 40.4c2.6 0 3.2 1.2 3.2 2.2v5.7c0 .2-.2.4-.5.4h-1.9v-.7-.1c-.7.7-1.7.9-2.2.9-.5 0-2.4-.2-2.4-2.2 0-2.2 2.8-3 4.7-3.5v0c0-.6 0-.8-.1-1.2-.1-.4-.7-.5-.9-.5-1 0-2.1.3-3.1.8v-1.1C20 40.8 21.2 40.4 22.3 40.4M58.3 38.3c.6 0 1 0 1.6.2v-1.1c-.6-.2-1.2-.2-1.8-.2-1 0-3.2.4-3.2 2.3v1.1h-1.5v1h1.5v7.2h1.9c.2 0 .4-.2.4-.4v-6.8h1.9v-1h-1.9v-.5c0-.6 0-.8.1-1.2C57.6 38.5 58.1 38.3 58.3 38.3" fill="#ffffff" class="svgShape color000000-2 selectable"></path><path fill-rule="evenodd" d="M40.4,45c0,2.1,1.8,4,4,4c1.3,0,2.3-0.7,2.9-1.3c0.5-0.5,0.9-1.1,1-2h-1.2		c-0.1,0.4-0.7,1.7-2.2,1.7c-1.8,0-2.1-1.7-2.1-2.8h5.4c0.1-2.3-1.2-4-3.6-4.1C42.3,40.4,40.4,42.1,40.4,45z M44,41.5
		c0.7,0,1.4,0.5,1.4,2.2h-2.7C42.8,43,42.9,41.5,44,41.5z" clip-rule="evenodd" fill="#ffffff" class="svgShape color000000-3 selectable"></path><path d="M70.6 41.4c-.8.1-1.8 1.4-1.3 4.2.3 1.8 1.2 2.4 1.9 2.4.7 0 1.5-1 1.5-2.7C72.7 41.8 71.2 41.3 70.6 41.4M75.2 44.6c0 2.3-1.8 4.4-4.3 4.4-2.4 0-4.3-1.8-4.3-4.2s1.7-4.3 4.3-4.3C73.4 40.4 75.2 42.2 75.2 44.6M121.2 41.4c-.8.1-1.8 1.4-1.3 4.2.3 1.8 1.2 2.4 1.9 2.4.7 0 1.5-1 1.5-2.7C123.3 41.8 121.8 41.3 121.2 41.4M125.8 44.6c0 2.3-1.8 4.4-4.3 4.4-2.4 0-4.3-1.8-4.3-4.2s1.7-4.3 4.3-4.3C123.9 40.4 125.8 42.2 125.8 44.6M158.4 41.4c-.8.1-1.8 1.4-1.3 4.2.3 1.8 1.2 2.4 1.9 2.4.7 0 1.5-1 1.5-2.7C160.5 41.8 159.1 41.3 158.4 41.4M163.1 44.6c0 2.3-1.8 4.4-4.3 4.4-2.4 0-4.3-1.8-4.3-4.2s1.7-4.3 4.3-4.3C161.2 40.4 163.1 42.2 163.1 44.6M153 38.6c0 .7-.6 1.3-1.3 1.3-.7 0-1.3-.6-1.3-1.3 0-.7.6-1.3 1.3-1.3C152.4 37.3 153 37.9 153 38.6M34.2 40.6v5.8c0 .5.4 1.2 1.1 1.2.4 0 .9-.5 1.3-1v-5.5c0-.2.2-.4.5-.4H39v7.8c0 .2-.2.4-.5.4h-1.9v-.8c-.3.3-.6.5-1 .7-.3.2-.7.2-1 .2-1.6 0-2.7-1.3-2.7-2.6v-5.3c0-.2.2-.4.5-.4H34.2M144.7 40.6v-2.1c0-.2.2-.5.4-.5h1.9v2.6h1.9v1H147v5.3c0 .2 0 .3.1.4.1.1.3.2.5.2.5 0 1.2-.4 1.3-.6v1.2c-.5.4-1.3.9-2.3.9-1.5 0-2-1.1-2-2v-5.4h-1.2v-1H144.7M111 42.8c.1-.1.9-.9 1.6-.9.5 0 .8.6.8 1.3v5.6h1.9c.2 0 .4-.2.4-.4v-5.4c0-1.5-1.3-2.5-2.4-2.5-1.2 0-2 .5-2.4.8v-.6h-1.9c-.2 0-.5.2-.5.4v7.8h1.9c.2 0 .5-.2.5-.4V42.8zM166.9 42.8c.1-.1.9-.9 1.6-.9.5 0 .8.6.8 1.3v5.6h1.9c.2 0 .4-.2.4-.4v-5.4c0-1.5-1.3-2.5-2.4-2.5-1.2 0-2 .5-2.4.8v-.6H165c-.2 0-.4.2-.4.4v7.8h1.9c.2 0 .4-.2.4-.4V42.8zM135.9 41.1v1.1c.9-.4 2.1-.8 3.1-.8.2 0 .8.1.9.5.1.4.1.6.1 1.2v0c-1.9.5-4.7 1.3-4.7 3.5 0 2 1.9 2.2 2.4 2.2.5 0 1.5-.1 2.2-.9v.1.7h1.9c.2 0 .5-.2.5-.4v-5.7c0-1-.6-2.2-3.2-2.2C138 40.4 136.8 40.8 135.9 41.1M138.6 47.6c-.6 0-.9-.6-.9-1.1 0-.7.7-1.7 2.3-2.3 0 .8 0 1.9 0 2.7C139.7 47.2 139.3 47.6 138.6 47.6M102 42.8c.1-.1.9-.9 1.6-.9.5 0 .8.6.8 1.3v5.6h1.9c.2 0 .4-.2.4-.4v-5.4c0-1.5-1.3-2.5-2.4-2.5-1.2 0-2 .5-2.4.8v-.6h-1.9c-.2 0-.5.2-.5.4v7.8h1.9c.2 0 .5-.2.5-.4V42.8zM86.3 40.4c-1.2 0-2.1.5-2.8 1-.5-.8-1.4-1-2-1-1.2 0-2 .5-2.4.8v-.6h-1.9c-.2 0-.4.2-.4.4v7.8h1.9c.2 0 .5-.2.5-.4v-5.6c.1-.1.9-.9 1.6-.9.5 0 .8.6.8 1.3v5.6h1.9 0c.2 0 .4-.2.4-.4v-5.6c.1-.1.9-.9 1.6-.9.5 0 .8.6.8 1.3v5.6h1.9c.2 0 .4-.2.4-.4v-5.4C88.6 41.4 87.4 40.4 86.3 40.4" fill="#ffffff" class="svgShape color000000-4 selectable"></path></svg></g></svg>