<svg id="SvgjsSvg1001" width="288" height="288" xmlns="http://www.w3.org/2000/svg" version="1.1" xmlns:xlink="http://www.w3.org/1999/xlink" xmlns:svgjs="http://svgjs.com/svgjs"><defs id="SvgjsDefs1002"></defs><g id="SvgjsG1008" transform="matrix(1,0,0,1,0,0)"><svg xmlns="http://www.w3.org/2000/svg" fill-rule="evenodd" stroke-linejoin="round" stroke-miterlimit="1.414" clip-rule="evenodd" viewBox="0 0 201 19" width="288" height="288"><g transform="translate(-197 -72)"><path fill="#ffffff" fill-rule="nonzero" d="M304.518 89.098L309.677 89.098 310.119 87.733 304.963 87.733M344.968 89.098L350.129 89.098 350.571 87.733 345.411 87.733M231.366 83.87L232.679 83.87 233.631 89.098 237.248 89.098 234.448 73.854 232.036 73.854 226.997 82.591 227.02 82.591 223.048 82.591 222.605 83.87 226.26 83.87 223.243 89.098 225.193 89.098 228.215 83.875 228.208 83.87 231.366 83.87 231.134 82.591 228.951 82.591 228.959 82.588 231.611 78.003 232.446 82.591 231.134 82.591 231.366 83.87zM286.934 82.221L285.197 87.681 291.366 87.681 290.941 89.098 280.942 89.098 283.118 82.221 283.105 82.221 280.872 82.221 281.299 80.944 283.53 80.944 283.521 80.941 285.765 73.854 295.761 73.854 295.371 75.202 289.167 75.202 287.341 80.944 291.366 80.944 290.941 82.221 286.934 82.221z" class="svgShape color373535-1 selectable"></path><path fill="#ffffff" fill-rule="nonzero" d="M304.968 87.736L309.357 73.854 305.67 73.854 300.849 89.098 304.519 89.098M345.418 87.736L349.81 73.854 346.123 73.854 341.299 89.098 344.969 89.098M214.079 73.853L211.79 81.085 211.809 81.085 206.191 81.085 206.189 81.085 208.477 73.853 204.861 73.853 202.572 81.085 198.887 81.085 198.479 82.431 202.149 82.431 200.039 89.097 203.655 89.097 205.765 82.431 211.365 82.431 209.259 89.097 212.875 89.097 217.693 73.853 214.079 73.853zM366.368 83.87L368.017 83.87 368.971 89.098 372.586 89.098 369.786 73.854 367.373 73.854 362.338 82.591 362.359 82.591 358.39 82.591 357.943 83.87 361.597 83.87 358.584 89.098 360.533 89.098 363.554 83.875 363.546 83.87 366.368 83.87 366.368 82.591 364.29 82.591 364.298 82.588 366.95 78.003 367.785 82.591 367.782 82.591 366.368 82.591 366.368 83.87z" class="svgShape color373535-2 selectable"></path><path fill-rule="nonzero" d="M198.425,82.431L198.852,81.085" fill="#ffffff" class="svgShape color000000-3 selectable"></path><path fill="#ffffff" fill-rule="nonzero" d="M248.713 81.869C243.65 78.516 248.806 70.872 255.958 74.836L255.192 76.113C250.76 73.173 247.138 77.308 250.801 78.927 251.867 79.481 252.676 79.736 254.041 80.72 255.415 81.704 255.873 83.061 255.49 84.723 254.383 89.528 248.374 90.647 244.751 87.491L245.732 86.217C250.503 90.219 255.021 85.747 251.996 83.745 250.757 82.922 249.566 82.465 248.713 81.869zM266.122 81.869C261.062 78.516 266.214 70.872 273.366 74.836L272.601 76.113C268.167 73.173 264.547 77.308 268.211 78.927 269.278 79.481 270.085 79.736 271.45 80.72 272.824 81.704 273.281 83.061 272.899 84.723 271.79 89.528 265.782 90.647 262.16 87.491L263.14 86.217C267.913 90.219 272.43 85.747 269.405 83.745 268.166 82.922 266.974 82.465 266.122 81.869zM324.907 80.859L325.566 80.859 325.158 82.253 324.48 82.253 324.401 82.253 322.598 87.747 318.815 87.697 320.636 82.257 320.565 82.257 318.273 82.257 318.735 80.873 319.64 80.873 321.1 80.876 323.449 73.854C323.449 73.854 323.946 73.857 328.415 73.854 334.54 73.846 335.341 79.549 329.26 81.408 334.54 82.634 332.133 88.972 325.15 89.098L318.344 89.098 318.815 87.697 323.905 87.747 325.188 87.747C327.949 87.703 330.821 82.295 326.555 82.253L325.158 82.253 325.566 80.859 326.766 80.859C330.611 80.775 331.455 75.114 327.562 75.201L326.711 75.201 324.907 80.859zM386.5 89.098L386.112 89.098 386.112 87.681 386.358 87.681C393.095 87.681 395.789 75.272 390.118 75.272L388.91 75.272 384.657 87.681 386.112 87.681 386.112 89.098 380.616 89.098 385.58 73.854 390.118 73.854C400.626 73.72 398.387 88.676 386.5 89.098z" class="svgShape color373535-4 selectable"></path></g></svg></g></svg>