<svg xmlns="http://www.w3.org/2000/svg" width="35" height="35" viewBox="0 0 35 35">
  <g id="ico-om-system" transform="translate(-258 -530)">
    <g id="長方形_2196" data-name="長方形 2196" transform="translate(258 530)" stroke="#fff" stroke-width="1">
      <rect width="35" height="35" rx="6" stroke="none"/>
      <rect x="0.5" y="0.5" width="34" height="34" rx="5.5" fill="none"/>
    </g>
    <g id="logo-A-wh" transform="translate(263.6 535.6)">
      <path id="パス_20462" data-name="パス 20462" d="M342,322H317.5V297.5H342Zm-23.987-.511h23.476V298.011H318.013Z" transform="translate(-317.5 -297.5)" fill="#fff"/>
      <path id="パス_20463" data-name="パス 20463" d="M400.92,584.513l-2.343-5.74h-3.112v3.945a5.433,5.433,0,1,0,0,2.221v3.9H397.9v-5.476l2.087,5.476h1.857l2.087-5.476v5.476h2.442v-10.06h-3.114Zm-10.732,2.308a2.992,2.992,0,1,1,2.971-2.992,2.98,2.98,0,0,1-2.971,2.992" transform="translate(-383.61 -573.433)" fill="#fff"/>
      <path id="パス_20464" data-name="パス 20464" d="M406.294,1231.372h.8a2.387,2.387,0,0,0-.021-.315.531.531,0,0,0-.2-.354,1.435,1.435,0,0,0-.538-.171,7.947,7.947,0,0,0-.852-.032,5.49,5.49,0,0,0-.838.058.83.83,0,0,0-.483.283.983.983,0,0,0-.149.5,1.2,1.2,0,0,0,.088.522.533.533,0,0,0,.209.219,1.29,1.29,0,0,0,.511.092c.23.011.5.016.723.021s.518.02.638.028a.183.183,0,0,1,.191.177.173.173,0,0,1-.126.177,3.985,3.985,0,0,1-.647.032,5.97,5.97,0,0,1-.617-.025.222.222,0,0,1-.187-.225H404a2.536,2.536,0,0,0,.027.352.622.622,0,0,0,.148.3.5.5,0,0,0,.248.15,6.5,6.5,0,0,0,1.091.071,9.353,9.353,0,0,0,1.006-.03,1,1,0,0,0,.4-.147.834.834,0,0,0,.23-.3,1.036,1.036,0,0,0,.055-.391,1.07,1.07,0,0,0-.126-.5.5.5,0,0,0-.253-.214,1.832,1.832,0,0,0-.47-.08c-.133-.005-.562-.019-.771-.025-.172,0-.534-.02-.615-.037a.16.16,0,0,1-.009-.31,2.738,2.738,0,0,1,.582-.053,3.685,3.685,0,0,1,.576.034.248.248,0,0,1,.141.085.28.28,0,0,1,.034.119" transform="translate(-402.47 -1214.002)" fill="#fff" fill-rule="evenodd"/>
      <path id="パス_20465" data-name="パス 20465" d="M582.173,1232.715l.858-1.015h1.013l-1.464,1.745v.934h-.8l-.014-.934L580.3,1231.7h1.013Z" transform="translate(-575.653 -1215.18)" fill="#fff"/>
      <path id="パス_20466" data-name="パス 20466" d="M983.156,1231.7v.706h-1.171v1.973h-.815v-1.973H980v-.706Z" transform="translate(-968.285 -1215.18)" fill="#fff"/>
      <path id="パス_20467" data-name="パス 20467" d="M1176.015,1233.764h2.037v.615H1175.2V1231.7h2.852v.614h-2.037v.419h1.911v.614h-1.911Z" transform="translate(-1160.033 -1215.18)" fill="#fff"/>
      <path id="パス_20468" data-name="パス 20468" d="M1362.279,1234.379h-.311l-.985-1.775c-.009-.018-.023-.041-.043-.037s-.025.035-.025.055v1.758h-.815V1231.7h1.271l.9,1.618a.009.009,0,0,0,.009.007s.007,0,.011-.007l.9-1.618h1.271v2.679h-.815v-1.758c0-.02,0-.049-.025-.055s-.033.019-.042.037l-.985,1.775Z" transform="translate(-1341.664 -1215.18)" fill="#fff"/>
      <path id="パス_20469" data-name="パス 20469" d="M792.294,1231.372h.8a2.387,2.387,0,0,0-.021-.315.538.538,0,0,0-.2-.354,1.434,1.434,0,0,0-.538-.171,7.948,7.948,0,0,0-.852-.032,5.49,5.49,0,0,0-.838.058.83.83,0,0,0-.483.283.983.983,0,0,0-.149.5,1.2,1.2,0,0,0,.088.522.521.521,0,0,0,.209.219,1.29,1.29,0,0,0,.511.092c.23.011.5.016.721.021s.52.02.638.028a.183.183,0,0,1,.191.177.173.173,0,0,1-.126.177,3.984,3.984,0,0,1-.647.032,5.97,5.97,0,0,1-.617-.025.222.222,0,0,1-.187-.225H790a2.725,2.725,0,0,0,.025.352.608.608,0,0,0,.15.3.5.5,0,0,0,.248.15,6.507,6.507,0,0,0,1.093.071,9.294,9.294,0,0,0,1-.03,1,1,0,0,0,.4-.147.816.816,0,0,0,.23-.3,1.176,1.176,0,0,0-.069-.891.5.5,0,0,0-.253-.214,1.834,1.834,0,0,0-.47-.08c-.133-.005-.562-.019-.771-.025-.171,0-.534-.02-.617-.037a.16.16,0,0,1-.009-.31,2.738,2.738,0,0,1,.582-.053,3.638,3.638,0,0,1,.575.034.248.248,0,0,1,.141.085.266.266,0,0,1,.035.119" transform="translate(-781.645 -1214.002)" fill="#fff" fill-rule="evenodd"/>
    </g>
  </g>
</svg>
