<svg xmlns="http://www.w3.org/2000/svg" width="200" height="23.171" viewBox="0 0 200 23.171">
  <g id="logo-B-bk" transform="translate(-79.1 -383.7)">
    <path id="パス_20470" data-name="パス 20470" d="M113.506,396.761,108.5,384.509h-6.645v8.416a11.586,11.586,0,1,0,0,4.722v8.317h5.213V394.269l4.459,11.695h3.957l4.459-11.695v11.695h5.213V384.509h-6.645ZM90.587,401.69a6.383,6.383,0,1,1,6.339-6.383,6.367,6.367,0,0,1-6.339,6.383"/>
    <path id="パス_20471" data-name="パス 20471" d="M597.162,423.457h5.487a15.541,15.541,0,0,0-.153-2.153,3.592,3.592,0,0,0-1.355-2.415,9.926,9.926,0,0,0-3.672-1.169,55.722,55.722,0,0,0-5.826-.219,37.539,37.539,0,0,0-5.727.4,5.6,5.6,0,0,0-3.29,1.935,6.676,6.676,0,0,0-1.016,3.377,8.307,8.307,0,0,0,.6,3.563,3.591,3.591,0,0,0,1.421,1.486,8.956,8.956,0,0,0,3.487.634c1.574.077,3.432.109,4.929.153,1.519.044,3.541.131,4.35.2a1.241,1.241,0,0,1,1.3,1.213,1.165,1.165,0,0,1-.852,1.2,25.765,25.765,0,0,1-4.416.208,40.987,40.987,0,0,1-4.219-.175,1.526,1.526,0,0,1-1.279-1.53H581.5a17.484,17.484,0,0,0,.175,2.394,4.171,4.171,0,0,0,1.016,2.022,3.4,3.4,0,0,0,1.683,1.016,44.494,44.494,0,0,0,7.454.481,65.639,65.639,0,0,0,6.853-.2,6.5,6.5,0,0,0,2.721-1.006,5.573,5.573,0,0,0,1.563-2.077,7.405,7.405,0,0,0,.383-2.667,7.325,7.325,0,0,0-.852-3.41,3.425,3.425,0,0,0-1.727-1.465,12.2,12.2,0,0,0-3.2-.536c-.907-.033-3.836-.131-5.257-.164-1.169-.033-3.64-.131-4.208-.262a.942.942,0,0,1-.853-1.06.973.973,0,0,1,.8-1.06,18.756,18.756,0,0,1,3.967-.361,26.211,26.211,0,0,1,3.924.23,1.609,1.609,0,0,1,.962.579,1.733,1.733,0,0,1,.262.831" transform="translate(-447.49 -30.106)" fill-rule="evenodd"/>
    <path id="パス_20472" data-name="パス 20472" d="M789.066,425.818l5.847-6.918h6.918l-9.99,11.9v6.372h-5.465l-.1-6.372L776.3,418.9h6.907Z" transform="translate(-620.999 -31.353)"/>
    <path id="パス_20473" data-name="パス 20473" d="M1238.931,418.9v4.82h-7.99v13.454h-5.552V423.72h-7.99V418.9Z" transform="translate(-1013.889 -31.353)"/>
    <path id="パス_20474" data-name="パス 20474" d="M1438.463,432.988h13.891v4.186H1432.9V418.9h19.455v4.186h-13.891v2.853H1451.5v4.2h-13.039Z" transform="translate(-1205.836 -31.353)"/>
    <path id="パス_20475" data-name="パス 20475" d="M1651.864,437.174h-2.12l-6.722-12.121c-.066-.12-.153-.273-.3-.251-.175.033-.164.24-.164.383v11.99H1637V418.9h8.678l6.12,11.039c.011.033.033.055.066.044.033.011.044-.011.066-.044l6.12-11.039h8.678v18.274h-5.563v-11.99c0-.142,0-.339-.175-.383-.131-.022-.229.131-.284.251l-6.722,12.121Z" transform="translate(-1387.628 -31.353)"/>
    <path id="パス_20476" data-name="パス 20476" d="M1023.618,423.457h5.487a16.719,16.719,0,0,0-.142-2.153,3.681,3.681,0,0,0-1.355-2.415,9.863,9.863,0,0,0-3.672-1.169,55.624,55.624,0,0,0-5.815-.219,37.383,37.383,0,0,0-5.716.4,5.6,5.6,0,0,0-3.29,1.935,6.676,6.676,0,0,0-1.016,3.377,8.307,8.307,0,0,0,.6,3.563,3.591,3.591,0,0,0,1.421,1.486,8.956,8.956,0,0,0,3.487.634c1.574.077,3.432.109,4.929.153,1.519.044,3.541.131,4.361.2a1.241,1.241,0,0,1,1.3,1.213,1.177,1.177,0,0,1-.853,1.2,25.766,25.766,0,0,1-4.416.208,40.987,40.987,0,0,1-4.219-.175,1.526,1.526,0,0,1-1.279-1.53H1008a17.477,17.477,0,0,0,.175,2.394,4.171,4.171,0,0,0,1.016,2.022,3.4,3.4,0,0,0,1.683,1.016,44.494,44.494,0,0,0,7.454.481,65.642,65.642,0,0,0,6.853-.2,6.5,6.5,0,0,0,2.721-1.006,5.572,5.572,0,0,0,1.563-2.077,7.4,7.4,0,0,0,.383-2.667,7.323,7.323,0,0,0-.853-3.41,3.424,3.424,0,0,0-1.727-1.465,12.2,12.2,0,0,0-3.2-.536c-.907-.033-3.836-.131-5.257-.164-1.169-.033-3.64-.131-4.208-.262a.942.942,0,0,1-.852-1.06.973.973,0,0,1,.8-1.06,18.757,18.757,0,0,1,3.967-.361,26.212,26.212,0,0,1,3.924.23,1.61,1.61,0,0,1,.962.579,2.312,2.312,0,0,1,.219.831" transform="translate(-827.375 -30.106)" fill-rule="evenodd"/>
  </g>
</svg>
